<mxfile host="app.diagrams.net" modified="2023-08-21T04:21:04.682Z" agent="Mozilla/5.0 (Windows NT 10.0; Win64; x64) AppleWebKit/537.36 (KHTML, like Gecko) Chrome/115.0.0.0 Safari/537.36 Edg/115.0.1901.203" etag="tfj60oUS7f1ig_Ye0mGr" version="21.6.8" type="github">
  <diagram name="第 1 页" id="cqqPodx_gIHTt5UWhKDk">
    <mxGraphModel dx="744" dy="1107" grid="1" gridSize="10" guides="1" tooltips="1" connect="1" arrows="1" fold="1" page="1" pageScale="1" pageWidth="827" pageHeight="1169" math="0" shadow="0">
      <root>
        <mxCell id="0" />
        <mxCell id="1" parent="0" />
        <mxCell id="rkvHEvfjf1KEYPUZyGFZ-5" style="edgeStyle=orthogonalEdgeStyle;rounded=0;orthogonalLoop=1;jettySize=auto;html=1;" edge="1" parent="1" source="E8Qx4PALKQgT2wIL797c-1" target="E8Qx4PALKQgT2wIL797c-2">
          <mxGeometry relative="1" as="geometry" />
        </mxCell>
        <mxCell id="E8Qx4PALKQgT2wIL797c-1" value="" style="verticalLabelPosition=bottom;sketch=0;aspect=fixed;html=1;verticalAlign=top;strokeColor=none;align=center;outlineConnect=0;shape=mxgraph.citrix.users;" parent="1" vertex="1">
          <mxGeometry x="60" y="388" width="64.5" height="55" as="geometry" />
        </mxCell>
        <mxCell id="rkvHEvfjf1KEYPUZyGFZ-6" style="edgeStyle=orthogonalEdgeStyle;rounded=0;orthogonalLoop=1;jettySize=auto;html=1;" edge="1" parent="1" source="E8Qx4PALKQgT2wIL797c-2" target="rkvHEvfjf1KEYPUZyGFZ-1">
          <mxGeometry relative="1" as="geometry" />
        </mxCell>
        <mxCell id="E8Qx4PALKQgT2wIL797c-2" value="" style="verticalLabelPosition=bottom;sketch=0;aspect=fixed;html=1;verticalAlign=top;strokeColor=none;align=center;outlineConnect=0;shape=mxgraph.citrix.calendar;" parent="1" vertex="1">
          <mxGeometry x="280" y="365.5" width="75" height="100" as="geometry" />
        </mxCell>
        <mxCell id="E8Qx4PALKQgT2wIL797c-12" value="&lt;font style=&quot;font-size: 18px;&quot;&gt;资产发放&lt;/font&gt;" style="text;strokeColor=none;align=center;fillColor=none;html=1;verticalAlign=middle;whiteSpace=wrap;rounded=0;" parent="1" vertex="1">
          <mxGeometry x="355" y="270" width="110" height="30" as="geometry" />
        </mxCell>
        <mxCell id="E8Qx4PALKQgT2wIL797c-14" value="&lt;font style=&quot;font-size: 18px;&quot;&gt;通知管理员&lt;/font&gt;" style="text;strokeColor=none;align=center;fillColor=none;html=1;verticalAlign=middle;whiteSpace=wrap;rounded=0;" parent="1" vertex="1">
          <mxGeometry x="358.5" y="370" width="110" height="40" as="geometry" />
        </mxCell>
        <mxCell id="rkvHEvfjf1KEYPUZyGFZ-7" style="edgeStyle=orthogonalEdgeStyle;rounded=0;orthogonalLoop=1;jettySize=auto;html=1;entryX=0;entryY=0.5;entryDx=0;entryDy=0;" edge="1" parent="1" source="rkvHEvfjf1KEYPUZyGFZ-1" target="rkvHEvfjf1KEYPUZyGFZ-2">
          <mxGeometry relative="1" as="geometry" />
        </mxCell>
        <mxCell id="rkvHEvfjf1KEYPUZyGFZ-1" value="" style="verticalLabelPosition=bottom;sketch=0;aspect=fixed;html=1;verticalAlign=top;strokeColor=none;align=center;outlineConnect=0;shape=mxgraph.citrix.users;" vertex="1" parent="1">
          <mxGeometry x="480" y="388" width="64.5" height="55" as="geometry" />
        </mxCell>
        <mxCell id="rkvHEvfjf1KEYPUZyGFZ-15" style="edgeStyle=orthogonalEdgeStyle;rounded=0;orthogonalLoop=1;jettySize=auto;html=1;" edge="1" parent="1" target="E8Qx4PALKQgT2wIL797c-1">
          <mxGeometry relative="1" as="geometry">
            <mxPoint x="710" y="310" as="targetPoint" />
            <mxPoint x="710.0200000000001" y="360" as="sourcePoint" />
            <Array as="points">
              <mxPoint x="710" y="310" />
              <mxPoint x="92" y="310" />
            </Array>
          </mxGeometry>
        </mxCell>
        <mxCell id="rkvHEvfjf1KEYPUZyGFZ-2" value="" style="shape=image;verticalLabelPosition=bottom;verticalAlign=top;imageAspect=0;image=data:image/png,iVBORw0KGgoAAAANSUhEUgAAAHEAAABxCAYAAADifkzQAAAACXBIWXMAAC4jAAAuIwF4pT92AAAAIGNIUk0AAHolAACAgwAA+f8AAIDpAAB1MAAA6mAAADqYAAAXb5JfxUYAAFUzSURBVHja7L1nlOTndd5ZZhQpa00RwGAYRMqkKEGRtsIeiWuaQUNSokSJpESKAaERJ890zt2VunJVV84555xzDh2r02RkgOJQlCxtOAZsr/3sh/df1dWANnxo2/JZfLineoYYEKd+89z03vu+NAC0d+x/bHvnS3gH4jv2DsR37B2I79g7EN+B+I69A/EdewfiO/YOxHcgvmP/Q0Ks1XceKpW6f+ALZr/iD+f+pFjuPunyJh/zhbJTmXzDkczUrMVK11qub1hL9Q1rsdq1Fms9a7nes9YaG9Zaa8tab29bW92+tbO5Z+1u7Vs3tg+tWztHtq2dI2s0U5m2eGKP2f2pMYcvMWb3JcYsrviY1R0fs7miY1Z3bMzmio7ZXfExhys+5vLExpze6JjTmxhze5NjXn9qzBdMjvmCqTFfODMWCGfHQpHcWDSeH4unCmPJTHksla2NpXO1sWyhPpYvNsaK5dZYsdoeK1U7Y5V6d6zW2BhrtDbHWp3tsVZ3e6zT2x3b2Nwf2+nfeNIbTP+ZXOv4Q6XBdU6mdZyTax3nZFrHOZXBc05n9Z8zOcPnLJ7YOasn9hV/JPPlGzdufuD27Vu0W7du0e7eu0trdTZpvnCGFoxmacFYjhaKFmjBaJ4WjOZpgViBFogXaMFYnhaMFWnheIkWjBdpqUKTVmvvnB7EXKH1/Uis1PcFM/e9wcxPAuHcf3D7U2+6vMn/6PQmkK9uYP/GCzi4+SJaW0dobR6ht3sLG/3b2Nq7g+39u9jev4vdg3vYObyLrf272Dm8h91D8uvdw3v/cefg7pu7h/fe7B/ee7N/9Pybe5T1D+6+uXd07839wa8Pyc/9g7tv7h7ceXNn7/ab23u339zZv/PmzsGdN3cP7ry5vXf7zY3dmyest3Pjze724Zvd7cM325sHb7Y29t9sbR682ejtv9nc2H+z0dt/s0F91jr9N6ud3Tdr7f6b1Xb/P+SqGz9NF9uvpQqt1+O5xuvxXOP1WLbxejzbeD2Wa7wey9VfTxZar2cq3R8lC837m7uHv7N3dIfWP7xN27txl5YvN2n+/94Qnb7kmCeYve8LZuENpOEJpOH2p+DyJeHwxFFp9bF39AJe/9FPcXDrJfRvvIibd1/FjTuvnvi8eedV3Lr7Gm7dew237r6Kuy/8CM+/9GO89OpP8OIr9/HKa3+D1370U7z6o7/Fj378d3j9r/8Wr73+U7z+o7/F/ft/jx/f/3f4yU/+Hvd/8vd47fW/wcuv/gSvvHofr7x2H6+89hO8/td/i9f/+qd49fW/wcuv3seLr9zH8y/9Ne688BpuP/8qbt17BTfvvoKj2y/h4NaLOLj5IvZvvIC9Gy9g9/B57B69gO2De9jau4vN/h30dm+ju3MT3e0b6G7fRGvzCI2NQ9S7+6h19lBs7qBQ30K+voXO9g1s7d9Bvr6JVG3zXKG7Tyv2DmiJfJMWiGRowWjuvzNET2LMG8ze9wWy8PrT8AYzJyCWm7vY6N/Biy//GC+/eh8HN1/C4e2XcXj7ZRzdfuX489bLOLrzCo7uvIJb917DHQrivZd+jBde+QleevVv8PJrf4PXfvR3eO1Hf4dXBqBe+yl+9OO/w4/++u/wox//O7z+o5/ipVfu46VX7uPFl/4aL75yH69SsF/70U/x6us/xUsDiC//GLeffw0377yMG7dfwY07r+DwFoG4f/NF9I+eR//oBfSPXsDO4fPYPriHjf4dbPbvYGP3Nnrbt9DZuoH21g20NgjEWncf5fYu8vVNZCsb2Nq7g6M7L6Pa6SNVbKHR2T+3sXOHliq0aP5QmsD7pwDRFxgoMfM2JRbqW2hv38Tte6/ipZf/Gq2NA5QaWyg3tlBt7aDW6aPe6aPR20ert4/WxgHam4fobh+ht32EjZ0b2Ny5ia3dW9ju38Lu/h3s7t3Bdv8WtndvYWf/DvYO7mLv4B72D++hv38X/f072N27hZ29W9jdu43+wR30qX9uZ+8OdvZukz/fv4XN3VvobR+hu3U4/GxvHqC9eYDmBrHWxiEavX3Uu3uodfZQa/dRa/dRbe2i0txFpblDPhs7yJW7yFS6SBaaSOdbePHlH+OFV36MbLWHeLaOarX7u/lCixaM5GiBSPafCsTUCYhuf+oExGJ9C93d2zi4+RJeee0ncHqjsHpiSJc7SBXbSJc7yJa7yFa6yFV7yFU3kK9uIFfpoVjbRLG+iVJ9C+XGNkr1zeFfgFJ9C5XmDsqNbZTr26g0tlGsbZJfN6jfb5A/V25uk39Hc5t84S1i5eY28rVNJAotRLN1xHLHFsnWEM5UEcpUEUpXEEyVEUqVEUyWEEwcWyBRQjhZhsUdxdXJZUiVZiwyhLg4voDr03SEYnmU6hvwRXIIRPOIZSpsfzT3/UA0/wSx3BPBWP6JQCz/RDCWfyIYKz4RjBWeCMYKTwSihScC1M/BePGJULz0RDBWGksVW2PVzs7vnyLE9Jg3QLnTt0J0x1FqbGNj9zZ2D57HzTuvIF9uI1tsQam1QWfyQG9yw2wPwOmNweVPIBDOIhTNIZoqI5WtI5WrI1dqo1jtoVjbQKWxjWpzB6XaJqrUz9XGNsq1DepzE8XqBoqVHvkz1Q1kS20UKl3kSm3kym1ki00ks1VE4kX4wllYXFHobQEYbEHobQFoLT5ozT6ozT6oTB4oDS7IdQ7IdXbItQ5I1VasqywQyY0QyQ0QK4xYpAuxJtRg6+AeUpUujO4o1BY/RCoreOsGqM1+6Owh6O1hmNxRmD1xWL1x2HxJ2P0pOAJpOAJpOIMZuEJZuEIZuEIZuENZeMN5YpE83KEckvkWivUt66lBdPnSY95g7r53kNhQAF2+JOzuGIr1LWztkQx0/8aL5Euvb+Dxp67giaeu4slnx3F1fAnT82wsrgpBZ0tBX5OBLVCBI9RArLRAIDVBrLRCqfdAY/JDawpArnVDrnFBqXNDorRBrLBBLLdiTaQHS6ABk68Bg6/GCleBBaYE8wwJppb4uDbDxIXxZTz+3CT+6okr+M6jl/EXP7iAb33/PP78u8/gG3/5NL76Z4/i698ewze+Q379J99+Cl//1hP44289jq9/+wn8ybefwtf+7FF8+Y+/iy//0Xfwpa/9Jb5w7luQqGzYOriH7cN7CKUqUFt8EKusYAnV4Eh04MuMECktWNfYITe4oTR5obb4obUFoLeHYHCEYXRGYHJFYXbHYPUmYPMnYfcT0HZ/ClZvHLFMDcXG5ulBdPtSY75BdjqS1AxjYm2LlA0H97B/40WU65uoNbcwMU3Hwgofq6x1rPFVEEkNUGgdUOpc0Jp8MDnCMDsi8IZycAcycAezcAWycPkz8ASz8IZycAUycHhTsHuSsHuSMNqj0FmC0JoCUBp9UJl8kGqcEKvsECttWBPpsMJVYI4hwrU5Fp65uoCxS7N4/LlpPPrsJL7/1Dj+auw6upu7EKxr8e0fXMJfPXEN3338Gr7z2BX85aOX8d3HruKvHh/Hdx69gm/+1bP4078cwze+/QT+9JuPY11lw9bB89jYvwt3JAeF0QOhwgyWQIU1sRbcdT34MiOECjPEKgJTqnNRQD1QWXzQWAlUnS0IoysCkztKfUZgdkdhckURSVdQap6iEt3+NAUxA28gDbfvLRCrm9jau4ud/XvYu/EiCpUOmp1dLNNFYPEU4It1kMjN0Bo9MNvDMNvDsLpi8IfzCEQKCMaKCCcqiKVqSGQbiCSriKVqiGfqCMcrCCcq8IXz8ARy8IbycPjSMLviMDiiMNgj0FpD0FqCUBg8kGgc4K4bscyRY5YuxNU5Fi5MLOOZqwt48tIsHr8wjR8+O4lwPIdFphjffeIqfvj0JL7/5CS+N3Yd3xsbx/fHxvHDp6bwvScm8J1Hr+Db37uIb/7Vc/jGXz4FgcyI9tYN+GIFyHROKI0e8OWmt0EUyE0QKS2QaGxY1zog07sgN3qgMHmhNPugtvgJTCuBqbeHoHeEYHRFYHCGEU6VUWqcIkRPIDPmC2Xve4cQk3B5k3B5E7C7YyjUNrG1fxebe3fQv/EicqUW6u1tsHlyCKUGSJVWqHQuGCx+mO1hOL1JeIMZ+MN5hOJlRJNVJDINpPNt5Eo95MobSBfaSOZaiKXriGcaiKXqiCarCCeqCCercIdycAezsHgSsLjjMLui0NlCUJp8WNc4wBBqsLQmw/QKH9fmWLg8Tcdz40t45toCnrqygO89PYHHzk/jycsLeOLCHB5/bhaPPjONx56ZwuPPzuDJi4t47Jk5ApeC+Z3HruCHT03iwrVlTMyzweCrwBZpwBZqwBZpsCbWgbuuB09qgEBuotRohURjh1TnhEzvhtzggdLkhWoAcgDTFoTOHoTBEYbeHiQQm9unB9EXzI75ggSix5+C25ciIEfd6cE9bO7dwe7h8yhUumj19sARqiGWGSFVWaHSOaHWu2GwBuDypQjAWAmRZAWJbBOpfBv5yiZKtW0UKlsUzB4yxS4yhQ4SGaLQeKaBWLqOYLwMTygHVyALZyADZyANmzcJvT0ChcELrtQEplCDOYYY0yt8jC+s4coMExen6Tg/sYLnJlbw7PVlPHNtGU9fW8TTVxfx5KUFjF2cw5MXF/DMlRU8eYGA/OFTU/j+2MTQLoyvYpG1jlWuHAy+EiyhmkCU6MCV6MFdNxCXqjRDrLZCoiZqlOpdkBtcRI0mL1RUvNRYTipSZwsilDxliP5Q/hjiQIm+gRKJO90+uIet/bvYPXoBhUoXzW4ffImOKFFlhVLrhN7ih80dg8ObhC+SRzRVRTxTR7rQQamxg1J9B8XqFoq1bRSqm8iVe8hXNpEtdJDMNpHMtRDPNBBN1RFKVOCPFuGJ5BGIleCNFOAMZGB2x6G1hbCuc4IrM2KVp8ACS4LpFQEml7gYX+DgyiwTV2bZuDjFwMVJOi5O0nF+YhXPXV/Gs9cW8ey1FZy/zsD5aww8dXEJjz0zi0efnqZsCtfnOFjhyLDKlYMpUIMl1GBNpAVHogNHohtRogUipRVilRXrGgdRo8ENudENhZFSo9kPtXkEpD0IrTWAcLKMcmvn9CAGIoUxXyh33/OWQt/lTcDuiqFQ3cDOwT1s7d9D/+gF5MsdNLt9CNf1EMmM0Jl8UOtdMFgCsLlicAfSCEaLw7iXLnRQa+2h0TlAqU5qwEqzj3JjB8XqNvLlDWSKHcq9NhBOVhFJ1RCIl+GPFRGMlxGIl+AO52D1JmF0RqAweiFQWLC2rscKT4FF9jpmGSJMrfAxscjF9bk1XJ1l48osC1dmmLgyw8LlaQYuTdPx3LVlXBhn4tIEC89eWcGTFxbw2LMkOXr8uRlMLPCwylOAwVOCKVCBLdRgTfyPQTRDpLRArLIRNWockOmckOtdUBgpt2ryURAD0FiIGjUWP8LJMqrt3dODGIoWx/yh3H3PW/qmzpGYuH3wPDb27mD38AUUKh20N/bBE2kgkhkh09hhtAVhdoRhcxOI4UQZiWwDqXxrqL5aZx/1zj5qrT1Um32U6zso1beRLfWQLW8Q11rsIpFrIpomagzESwjEy0Ogdn8KZncMamsAUr0LPJkJLLEWK3wFljhSzDMlmFkVYHKZj4lFPsYXuLg+x8X1eQ6uzbExvsDFU5fnceE6A1enebhwnYGnLy9h7OI8nrw4jycvzGNqSQA6TwmGQAWWgHKlYi04Yi04Yh146wbwZaZjkCriUiVqO6SDJEfvhtLogcpMFKmxBKC1BqC1Eoih01ZiJFYa84cJRLc/BZc/eaJOzNc2sblPmsa7h8+jWO2i3duHQKwDR6SBWG6CUu+E1uSF3ZuAL5xDMFZEJFlFvrKJaquPWnsP1dYeGt0D1Np7qLSIEku1bZTqO8iVN5CvbCBd7CKZbyGebSCebSKUrCCYIEr0xYpwBtOw+ZLQOcKQG70QqW3gyoxgitRY5SuxyJFijinBDF2E6RURppaFmFwSDoFOrwhxYWIVlyZYuDbLxcUJFp69uoKnLi3g6UsLePryImZWRGDw1WAI1GALtVgT6whAKiYOlCiQm0+4VInGRiBSJcdQjeZjNWqtAajNPoROW4mRRPkERLc/Bac3MVRivrqJjb072Nq/h+3D55Evt9HdPABfrAVfooNcY8e60gKNyQOrOwZXMA1/JE8y0mIHpfo2am2iwmp7D7XWHurtPdTae6i391Fu7KJQ3UK+soFsuYd0sUPUmKkjnKohnKohQIH0RPJwBFIwuWNQWfyQ6F0QKC3gSPVgirWgC9RY5iqwwJZiliHBLEM8BDq9KsQsXYjxBQ6uznBwZZqDy5NsnL9Ox9OXF/HM1SU8d20Zs6tiMAVqMAUasKisdOBKB9kpX24C/0RctEGisWNdO8hUXVAYPFAaPFAaPQQiBVJtJkqsdfunBzGarIz5w/n7J+KhLwmHJwGbi4LYv0OdEz6PbLGFdm8fPLEWQqkBco0NMrWNuFRnBN5QFqFEmcpIN5CvbKLS2CXwOgdodA9Qb++j2iJAS/UdFKpbyFH/bKbURbLQQjzXRCzbQCRdQyhVRShVhS9WhDuSg9WXgM4RgtzogURjh0BpBldqAEusw6pAiWWuHEtrMsyzpJhjETc7xxRjnrWO6RURrkyv4fIkG5cmWbg4zsCz15bx7NVlPHd9BXN0CVhCLZhCDVgi7RAid10/hMiTkgxVMIyLA5dqg1RL4qLc4CYgjSRTVZl80Fj8UJt9CCdLqPdOEWI8WRsLhPP3PYGT3RonldjkKxvY2LuDjf5t7B69gEy+QdwplZ0qNHbI1DaYHWFYnFF4QhkE4kUkck1kSz3kKhsoN3ZQa++j2TtEo3uIenufwKRiZKW5i3x1E/nqJjKlHlLFDhL5FmLZBmLZBqKZGsKpKgKJMrzRAmz+JAzOCNS2AGQGNyQaO/hKCzgyExgiDVYFKqxwFVjiyLG0JsciW4pFthTLHBnmGOu4OjNQ4xrOX6fjuWureO7aKi6M0zHPWAdLqAVLqAGbgkhKi2OIg4J/4FJHIZLi3w253g2FwQulyQelyQfVQIkmH8LJMhob+6cHMZWuE4j+zImkxuE5dqe9/h30+rexfXAPyWwNnc0DCCVacEUarCstUOtd0Bg9cHgT8IXzCCfLSGSbRInVTVSau2j2DtDeOEKjd4BG7xCtjSMSK5t9VJq7KNa2hxDT5R6ShQ7i2SYSeaLKaLaBcLoGf6wIVzgLqy8BgysCldUPmcEFkcYGgdKCNZkRDJEOq3wVVvgqrPCUWOEpKFNini3DtTkOrs3ycG2Wg0uTTJwfXyXlyAQDC8x1sIQaAlGsBUeiJzaiQp7UCIHcCKFiNEsdqRl1LhIb9S4ojF6qhUhKDZXJi2Ci9J+KrR3eqUFM5xpjwcjAnaaHEG3uOGyuKLKVHlHi3h1sHdxDPFNFq7cHsYyoUKm1Q2N0w2gLwulLIhArIpapI1PqIF/dRLm5i1p7D63eITpbN9DaPEJn6yaaG0do9g5R7+yh3tlHublLasn6NrLVDWQqG0iXukgXO0iXukgVO4jnmwilKvDHS3AG0zB7YtA5QlCafZDoXRCq7RAoLWCvG7Aq1IEh1IIh0IAhVIMuUIEhVGOZo8D1WS7G53i4PsfD1Zk1XJpk4PIUC5cnWVhky8ASacEW67AmORkPuevHrnSgxgFEkdIKMVVqDBMcPXGpBCRxqUqjD4F48Y10tcc4NYjZQmssGM3fJwDTJ5Roc0WRq2xgkxpp2Dq4i3imglZvH3K1FWqDC1qDC0arH3ZPDO5gGsF4EYlcA8XaFqqtXdTbe2j2DtHbvoXezm1s7t5Bb+c2uls30dm6idbGEVq9IwKysYtScxfFxjaKdXJWmK1uDC1d7iKabSCYLMMdycHmT8DoCkNjC0Bm8kKic0KotoMjt4ApNoAp0lOmBVOkAUusxSpXjetzXEwsCDAxz8e1WQ6uzrCpzzUsrcnBFmvBFmsJxPWTMZErHXWpJ0GKqVJjfdCKG6hxEBvNPiiNXgTipTcypwkxV2yPBaOF+25/+m3u1OaKIlvuHbvTfeJOWxv70Ju9MFh8MNuDsLmi8IYyiKVrSOVbKNe30ezuo7VxhO7WTWzs3sZW/w529u+hf/gCdvbvYat/F5u7d9DdvoXu9i20N28QZXYPUO3so9LeQ7nVR6m1i3JrF6XmDrLVDSQKLUQyNfjiRTjDGZi9MeidYaisAUhNXoh0TvCVdrClZrDXTVhbN4AtMYAt0WNt3QC6QIuJBT6mFoWYmOdjfI6LazNruDqzhmuzbCxx5GCLtMN4uCbWUsW+Htx1HXjrenAHyY3cBL6MQCSZqoVkqRoHpFrniBrdUBq9UJv9UBo9CCZKb+RqG6cHsVDuUBBPlhcOD3GnmXIX3d3b6O7ewub+PSRzdfS2DsHhy8ATKcEXqyAQq6DQWGG2B2D3xOAKpBCIFhBOVhBNVamifxOF6sbws1DdJBMBpS5piOdbSOQaiGXqpLxIVxFKVxFKVRBMVuCPF+GOZOEIkjM5nT0IpckDqc4BsdoKnsIIjlQPhkiNFZ4ci2tSzLPWMccUE2OIMMcQY2qJj2euLOC5a0t49toinru2iPPjS7g4sYoLEyuYZ0qomKgGa9AAf0vXZpjgSA0QyP6RuKi2Qz5MbkiZoTL5oLYEoDL5EEyU38jWN08PYqnWGwvFjiEeK5GCWOpio38H7e2b2Ny/i1Sujs7WAWQKE+RKM1QaG7R6B6yOEDyBFIKRHGKpCjKFNnKlLorVTVQaO6i1+qi399Dq7JM6sdVHpUH1U6ubyJe6SBXaw6yU1IlVhJKVYdHvieRgDyRhckegMnsh0drBlerBpMAtsCWYYwoxtcLDxBIX44scXJ9fw9U5Nq5MM3F1honLU3Q8dWkOT12ew9jFWTx+fgqPPTuJJy5M46lLc5iji8AQqMDgk7bbsAE+VKP+ZDxUmCFW2yBWD4p9J9V+c5Os1OSHxnzcdiO908obufrW6UGsNrfGQrHifQLwJESrM4p0kSixs3MLm3t3kczVUW5sQSTRQqowQ6V1QGukRjQ8cQIyWkAsXUUiU0cq20SaApov9VAobyBb6iJb6CCdbyORbSCRqSOaqiKUKCMYK8EfK8IXLcIbycMTzg3NFcrA5kvC7IlCbw9CbfZCqnNAorFCpLJAoDCBJzOAKyPZ5CCr5K7rhx0XrkQPllBN3KRIC5ZQDaZABYZAhVm6CCtcBfiygZu0QqSyQaJ2YF3jwLrWgXWdA1KtfdgnHfRKFUYPVCbvUHWDvqnWGoDOGhyeYmitQYRTlTfyp6nEemtnLBwr3ieHwSk4vRREdxxWx1sg7t9FKl9HttQGhydDMFEiJxTNHZRbO6i2+6h199Do7aNBTZm1N4/Q3bmJ3s4tbPap2HhwD/3D59E/fAF7Ry9g/8aLOLjxEo5uvYKjO2SW9cadV3Hj7mu4ce813Lz3Gm7dex23nv8Rbj//I9x6/nXcoH59dPc1HN55FQd3XsH+7VfQv/kydm++jN2bL2HnxovYPnoR/ZsvY+uQnNhvHNzD5sE9bB0+j97+XXR2b6O5dQP13gF8iTJ0zjhsviwsnjTMnhRMrjgMzhj0jgh09hA01iA01gDU1Cm+2kJscIaoompCcgxFFKi1BKm227B3+ka+cYpKbHZ2x8Lx0n2X72S3xuGJw+Yk7nQAcWPvLjLFFvLVLoQSDQLxEgr1TRRqxIr1LVTau2j0DtDsHQzLid7OTfS2b2KLgrixcwsbO7ewuXsbm7u30du+ifbGETqbR2j2DlBv91FubKNQ3UC23EGq0EQiV0c4WUYgmocnlIHdl4DFHYXRGYLO6ofK5IFM58S6xg6xygqhwgyezAiORAe2UAMGTwU6V4EltgTLazKscJRYXpNjni7B1CIPk4tcXJqkY4ktg0BuAU9mAk9GWmtCpQUilQ1ijR1iNUlciDKpTFRLjqKGh8N694mOzaCPqjb7oDR5EYyX3ig2t08PYqu3NxaJl+6PdmocnjjlTiNIUxDb2zex0b+DXLmLfLWHqTkmrk2tYmZhDbOLHCzRRVhlS7EmVEOwboBIboZM64TS6IXG4ofBHobJEYHZFYPBHobWHIDOQkYv1CY/lAYvFHoPxEob+DIz2CItVjgyzFNJydQyD+PzbFyeXMX560t49uo8nro0gycuTOHRZ8fxg2eu4ftPXcX3xq6QAarHLuM7j13GX/7wEv7iBxfw7e+fx7e+dx5/9p2n8Rc/uIy/+MElfPv7l/DNvzqPP//us/jW9y7gW987j+uzbKxyFRRoGTmW4ivB5CtHYuNxM5wnM4IvN0OgGGmIK61UqeEYKTU8UBg8kBs88MeKb5RaO6cHsbtxMITopGwI0RVFutRBd/c2Wts30OvfQbbYQa7axewiB+PTDEzPszG7xMUqWwoGVwE+BVCstEKmdUJl9MJoD8PoiMDqTsDqIWZxxWF1x2FyRmF2xmB2RqExB6AweCDVOiBUWMBdN4AhUIHOU2J5TYo5uhDTKzxMLnFwfY6FK1OruDixjAvjS3j22jyeuTqHp67M4slLM3jiwjSeOD+Nx89P47FnJ/HoMxN49OkJ/ODJ63j82Vk8+vQMfvjUNL4/No7vPXENP3xyEj94chyTC1zQ+eT/k85TgM5TgMFXDZMclkgzhDkEKjWQRsD6oBFggkBuoWKqlcRULVGpVOuEL5J/o9Q6RSVubR+NRRNvV6LdHYPNFR0qcQAxlW8gU2pjZnEN4zMMTC+sYXaRi4UVAVh8JXgSPUQKC+RaJ+ni6z0wOiKwuBOweZOwe5OwDcxzbHZvCgZ7BGpzAHK9G2K1HXyZCRyJHiyRGnSeHIssCeboQsys8DGxSEBenWHg6jQdlyZXcHFiGefHl/Ds9UU8fXUOT1+dx9NX5vHUlVmMXZrB2MVpPPbcJJ66uIixCwt44vwsHn1mCo8+PYnHn5vB4+enML3MH4FIzhWZQjUBSJUeayKSFI2C5FCjG6SrYwRfOgBpgUhhgVhth1TrwrrWAV8k/0a5s3t6ECv13neC0cKLTm8KLm/qBESrM4J0sYPOzi20tm+i17+NVKGJbKmDJboA0wtrmF/mYWGFj0W6EAyuHDyJHhKVDXKtE1qLH0ZHGBZ3DDZvAg5/CjZKiQ5/Gg5f6iRQbxJmVww6axBygwcCOYlrbLEWdJ4Cy2tSLLLXMc8QYXZVgOllHhnLmF/D9XkWrs0SqJen6bg4uYwLlErPjy/hueuLePbqAp66NIdnLi/jmSvLePrKAp68SEqNJy/P4akr85ili8AYgcjkq4ZjGiwKJlukOQGRdHaobFhiAEcyAlNmJopUkpacRO2AN5J7o9rpnx5Esz18zulN9N2+NFze5NshFtro7lBK3L2NRJb0RZdWBZhd4mBxRYBlhhirbClYAhWEMhNkWgeUBjf0thCsnjhsngRsngTcwSzcwSw8oRw8oRzcgSw81O+5Alm4Axk4fClY3HForQFI1HYIFRbwZcZhKUDnKbC0JsUiS4J5pghzDCFmVgWYXuFjcomHiUUuxhfXcG2OhSuzTFydZVH1IQOXphg4f30ZF8cZuDjOwPnrK3j2GpmSe/b6Ep67vow5uphA5CuP3ahABZZIDZaIAByNjQQiAbkm1mFNpAdbPFCmETypaQhSrLJBpLTBG86+UeueIkSLI3LO6U32B81vx7DlRiCmCm2ixC0KYq6OTLmDZYYQM4scLNOFWGGKQWdLwRNrsa6yQqFzQWPyweAIw+5LwBXIwBPKwR8pIhArwR8twh8twjcYbw/n4AsXyFSbJwGjIwKNxQ+Z3gWJ2gaRygq+3Ajuuh5MoRp0vhKrPAVWuDIClC0ZJkAzdAGmhyMaZHhqUPRfn2Pj0iQdlyfZuDzJxsUJOi6Mr+K560u4MLGCixOrmGdIwBCQk32mQENUSClxAHAYEyXH541ssQ5skY5SrBZskQ5rYv0QJl9mhkhhg0hphTece6O+sf9fA+JIy81NzhIJxA7a2zfR3DxCd/c2UrkGcpUuVphizC1xscwQgcGRkUHidQPWVTYo9C7orAGYnRHYvQm4ghn4IgUE42Uy+BQrEYsWEYgW4Y8U4YsU4AnlYPelYHJHobUFoTST9Hxda4dIaQFfbgJ3XY81iQ5skQYMIVHMCk+OZa4MSxwp1bWhRjRWhZheEWB6RYCpFT6mlvm4OsvGpQkGrk6v4fIUExcnGTg/voxLU3RcnmZggbUOhlBDne6rKVf6FohiDdYk2uE8KkeiA2fdALZIdzwVQIFki/VYkxjAXTdCILdAIDPDE8q+0TxdiMSdjnZr7G6iRItjBOIWgZjON5Gr9LDCFGF2kYMVlgRMrhxrAhWEUgNkGgdURg/0tiAsrhgcvhS84Tz8sRJCiQrCySpCicoQaDBeQjBWGkJ0BjKwehMwOMLQ2gJQmr2Q6UlCIFJbIVCYwaNUubauA1uiBVOkBkOowipfQcGUYYFN5m3mmBLMMUSYZYgwSxdhYoFLmt0z5PTi8hSDqHOagaszLCyypGAKNcc2Eg/ZIvWJzJQtUoNJDRkTiNohxCFIMQVSrKdcqwmeUPaN1ubh6UG0OqLnnJ5kn3RrElShnxjGxGS+hdYAYv82krkGMuUOVhgizCysYXGVDwZ7HWyeAkKZAVKNHSqjFwZbCFZ3HE5/Gt5wHoF4GeFkFeFkjbLqEGowXoY/WoQ3UoA7mIXdl4LZHYXBEYLGFoDK7IXC6IZM54SEKuYFSgqmVA/Oug4siQZMkRp0gZKafpNjcU1GmRQL7HUssNYxtSwYnieOz3FxdYaNq7NsXJtl4/o8B0trMjCFxzM2LJFmJKnRDOdQBwnXKk8OOl8BNhUXj92qlpxLinRDW5MYwJOa4Alm3mhvHZ0+RLcvBZeX6ta4kyMQ2wTi5hE6u7dIYlPuYpUlxsIKn7hTtgRrfCUEMiPkWgfUVG1o85B46IvkEYxXEEnXEU3XEUnVhvOl4WQVQUqZZFA4D1eQ6pG6YzA4I9DaAtBY/VCZvZAb3VjXOyHR2iFSkW4KX2ECV2bEmtQApkgLulCNFT450V/mKrDMlWOZq8AKV45ZugjX53iYXBBgYoFPDodnOQTsAhfLa7Jj9YlOwhtkpiyhGlenVzA1x8bELAvXpxi4Or6CyZk1zC4IsMhYB52rBFukBWfdAM66cZi1ctaNcAczb3S2TxGizRU75/Il++4T3ZoEbK74CMQbaGweob1zC4lsA9lKD6ssMeaXOFhmCLHKEoPFU0AoM0Kud0JjJltRdi8FMVpEOFlFdAixPvw5nKwhkqqR0UQq6fGEcnBSIC2eGExusoiis5GepcLkhczgglTnhETrgFBlhUBpAVduAktiAFOsw6pATY1oKEHnK0EXqEDnqzDHlGJyUYCpReExyHkexhd4GJ/nYYlNQRwqUHMMlIqJs0wxfu3Xfhdf++yf4DOf+Q385m/+Ln7/97+ML5/7c/zpn/8Q3/3BeTzxzASeu7KAS+MrGJ9bwxxdjCWWFHSuEq5A6nQhOtyJcy5vasSdxkliM+JOm1sEYmf3FhK5BrKVLlaZIswvrWGJzscKUwQWVwb+uh4ynQMaiw9GRxg2XwKeUBZ+CmI820QsM7AWYpkGIqnaUJ2DaW9flIqPwTTsgRSsvjjMnhgMrjC09iDUVj+UZgJTqndBpLFDpLaBp7CALaVAinSgC7SgCzRYFWpIsiLSYY65jokFHmaWxccg5/mYXORjckmAZY6cTAGIyLDUqCo5Eh2uzTIwMcfAo9+9ij/6vW/ik5/+Ffz8hx/Ez3/ow3jowYfxwAMP4cGHPoJPf+bX8Ou/+Xv4xCc/g0988pfw8U98Ch/92C/i63/yl/BFCm9s7t1inObO/jmXL9k/0Td1H9eJiVyTdPk3DtHZuYV4toZMuQM6S4z5JS6WVvlYZgjBorak5DonNBYfTM4IHP4UPOEc/NEiIqka4tkW4tkWYpkm9XPzBMRBfAzECEh3KAtnMANHIA2bPwmzJwajKwydYwDSC7nRA5nBDZHGAZ7SCq7CgjWpmVIkmUddFWrBEOrBEhkwyxBhfJ6L2VUJppdEmFoSEmUuCTG1LMAKRz4EOPwUaoZdm1WuHBeuzeP3P/sFfPVffwNnHv4Izjz8ETzw4Bn80qc/g7Gx8xh77jp+8VOP4OzZT+CDH/w5/POf/Z/w/vd/AO9+93vwuc99Gd5w4Y2t/TuMU9xPTJ5z+1MEInV6YR8p9kliQyC2d24hlq4iXWqDzhJhfplAXGEIweRIwV/XQ6q1Q2PxweyKwuFPwhPOIRArIZqpI5FrIZFrUYokU97RdB2xkVgZGo2P4Tx1jph9C8gIdHZyJKSi3KtERwaleAor1mQWsNdNYEoMYIoNYEmMYEkMYIlNWOaoML0sxPSyCDMr4iFIYgKscBTUyKL2RCxkUs2GNZEGSxwZPvmJz+BzH/8Czj78MZw5cxYPPfQwHnzwYTzz3BVMzdPx67/1e/joR38RP/uz/xw/93Mfwvt/5gN497vfi8997g/hCef/182921OnBtEbSB9DHI4qUhAdoxAP0Nq+iUSmjnSpjVWWCPPLHCyucLHCEIDBloC/roNsANFNQQxRENP14xHEgSKzx0DfpsZ4Cb7ocf3opkBafXGYPDEYnAPXGoDC5MO63g2hxgGByg6O3AqOjFLkuhmsdRNY62aw181Y5mkwtSzE9LIYMysSTC+LML0kxNSSCNPLQgqiZgiSwFODKaAWbERaLHNl+NQvPoLPffTzOPPQWXzqU5/Bv/zUL+PBBx7Cv/jQA/jwA2dw9uzH8YlPfgZnz34Cn/iFT+Fzv/8F/Pojv4F/+2+/CocvdT9b7Y2dHsRg5pzbn+4fd2visLvjpGPjCFPu9Aj1jUO0tm8gnq0jU2pjhSHA3BIHi6s8LNMFYHLWIRiBaHSG4fCn4A3nEIgWEU3Xkci3KSUeWyJ3HBsjqfrJbDVeokqPPNxhKtnxJ2HxxmFyR6GnQCrNfsiMXoi0TgjUDvAUdnDkdqzJrGBLrWBJzWBLLeBILVjlazGzIsbMqoQocVlMQC4TRb5diWowhcenGCscGZ66NI1f/MRn8LmPfh4Pn/koPvKRj+Hs2Y/hoQeJGh984AzOnPkIPv1Lv4FPfuq3sDK3ionr0/jjL3wZf/r1b8HkCN9Pl7unB9EXyp7zBNJ9p5fszdvdsaESLRTEFhUTW9s3EcvUiBKZQswvc7CwwsXiKg90tgQ8kQbrGhu0VGJj9xF3GkpUEMs0hu501K0Okp1o+i1qTFaobSgq0Qnnh27V6kvA7IkNIaqsAciMXoh1Lgg1TvDVDvCUDnDkdnDkNqzJbOBIreDKrKALdZhZFWN2VYLZFUqNKyLMrAgxtUzGM44hkvENFtW5YYs0mF0R4N98/o/xsbOfxBc//RU8fOajeOihs3jowbN48MGH8dBDD+Ohh87i4Yc/ik9+8lfwLz50BmNPnMej33scX/vCl/GHX/gKDLbg/UzlFJXoD+XOefzpvtOTIjHxBESS2DS2jlDbOEBr+wai6SpShRZWGELMLq4NIa6yxaR3qrZBbfYOlegJ5RCMlxFNUxApNSZyLcRPgGwgmm5QEGsIJavUWlsJfmrR1B3KwRFMD9VocIWhdYSgtgUhN/kg0Xsg0rog0DjBUznBVTrBVTjAkdvAldvBlTvAEOoxuyrGHEOCWboEs6tizK4O1CjECkd5DHAkQ2VQSlzlyPDDsSt4+MGP4eu/802cPUti4iAunjlzFmceOoszZz6Kj3/8U/jgB/85zjx4Bl/9w6/iNx75dfzBH3wRNk/8fqZyikoMRgtDJZLEJgabKzZsu8WzDTQ2KYhbNxDL1JAqtog7XVzDwjLnBESpxg6V2QujIwSHLwl3KItAvEQgDgCOuNVR9zqEmKqRKbcEmXIbqNEdzsEZypCyw58gsdEVgdoWhMzkw7rRB7HeDaHWBT4Fkqd0gKsgxlM4wRAbMEsXYY4hwRxjHbOrYsysiKhkhyQ2zGFCox1mpiQuqrDMXse3vvMUHj7zMXzszCcoeATcQIUPPXSWJDwPfxw/8zMfxM/8zAfwnve+F+95z/vw+c9/Bc5A+n6ydIoQw7HSOW8w03d6krC7k7C5BgfCMVjsYcSzzSHE5tYNxIZKFGBukY3FFQ6WVnmgs8TgijVY11JKHLjTUI5AzJCYmKTshCKpsmM0wQkNYmPiOMnxRPJwhTJwBFOw+I4hau0hyM1+SI0+SAxeiHRuCDQuCFRO8FVO8JTE+CoXmGIjZlbFmGOuY5YhwQwFkYAUYIWrGPZNh+WFQA0GXwWWUIPZVQE+9/k/xpmHP4YPP/AgHnzwDB4+Q8qMgTs9c+Yszj78cTz40EfwgQ98AB/4wAfw/ve/H+997/vwxS/+MZyB7P3UacbEaLxMIHqTpN3misNGnepbnRHEMw00N45Q6xGI8RElziywsLBMxUSWGDyRBhK1FWqzFwZniCr2B9lpYwhxFOAoRNLFaQxLDaLECgKx8sm4SLlUsy8OozsKnSNE4qLJj3WjDyLdQI3HiuSrnOCrXWBKKIiMdcwx1kmCsyrCzKoQ08tCrHKUVPOaKHHQ0GZQMzZTSzz8zu99CQ+f/Rg++tGP41Of/mU8+MAZSoEPDz/Pnv04Hj77C3jf+96P973v/XjXu94FGu1d+NKXvg53KHc/fZoxMZ6unfOHsv1B43swNGxzRanEpoXm5hFqvX1KiQTiMp2H6TkG5pbYWFjhYpUpAkeohkRthdLogcFBILqDGQSpEiORbyNBDQgn8i0kC21SduSO3SlpxVVPQqRcqjdCXKojmIEtkILZS0GkxvjlZj/WjV6IDV6IdB4IqfjI1zjBVzshULvAWjdihi7CPJNAnKVTEFdEmFkezU5HygyBBkwBOeFfZEowu8jHRz/+i3j44Y/gE5/8l3jggTOUCgcgH8bZsx/DRz76Sapj88v4rd/8bXz6Fz+FL33563AFs6eb2KSy9XP+cK7v8CSH7TaiQgKRuNNDVIcQq0gWmlhc4WJqAHGZgxWGEByBEhKVFUqzB3p7CDZfHK5A5qQSCyfVONrFiWWaiKSoDDVRHcbEYKIMX6wEb7QAdzhL1r4DxKUOlKi0BiGzBKi46IFY74FQ54ZQ44JA7YRA44RQ4wJbasIMnbjTeeY6Zulkm5iAPIY4OEoi7lRDZm0EaiwwxZiY5+AXPvlpfPjDD+Khh87g4Yc/QiUzxxDPnPkIfvlX/hV+47e/iMU5FlaW2fjav/0SvvH1b8Hmid/P1jZPD2Km0DwXiOT6dldyeBhsc8Vgc0ZhtocRy9RR3zhEtbuPxtYRoukqEoUmFlY4mJylY2aBRXqoDAHYQiUkKguUJg/09iCsvjjcwSwCsRIi6TqlwBFXmqUy1NxoYlOnjqyqIzv75OIFD6VEZzADWyA5jItaRxhKaxBySwBSExUX9V6I9B4ItVR81Lgg1nnAkVmIApnrwwx1hk4lNwOII+eBo0pki7W4NsvAhUuT+F++8FX86q99Fr/66789jIMPPXQWD3z4IXz4ww9R7vST+ODPfgg//MHTuHD+Gr7zFz/A177yJzA7w/fzje2x09yKOheI5PukrDhOamzOKCwDiJuHqHb30Ng8QiRdRSLfwMLKGiZmVjE9z8TcIhtLdD44AiVECjOURjeB6I3DTTXAI6kaAZgflBWtt7ThmsOif3DmGEoOin4KYjgPdzhPYuJIhqpzRqC0BSE3ByA1+yEx+ohL1XtIkqN1QaB1QaT3gquwYYYuwhxLSmWoYszSj2PiaLE/ADnITFlCDZbZ65inC/CvfvcP8JGP/ALOnv2FYUY6iIlnP/ILpPg/8zG85z3vw8c/+gv4+le+ht/77d/Dv/n8OTj8qfu5xtbpQSxUeueC0ULf7j5ufJP5migs9hCiQ4iUElMVAnF5DRPTK5iep2NmgYGFFS7YPDlESjOUJjf0jiBs1HyNP1YcUeJxjUi2gE9mp0N3SrXfRltwJLEhZYYtkILFn4TJE4PeFYHaHoLCEoLUHDgJkVKjUOeGSOeh3KkQ8ywJ5lhiApE69f/H3al2eMJP2m4arPIU+PqffRef/ezv4eMf/yQeeOAh/Iv/6UP46Ec+jqnpJVwbn8VnfvnX8cCHH8b730ey0g9+8IP4wAc+iC9+8Y/gCefv5+qnCLFc2zyGOKgRnSQumu1hRNMDd0qUGE0RJc4vrWF8ahlTc6uYmWdicYUHNl8BodwEpckNnT0IiydGIEYKiKRrBFzupAsdPZ6KjHRsQiMQ/bESfJFjJZ6oFb2kzNDYw1BYQpCZA1g3ETWKKJBCnRsivQdivRdsqQmzDBE1ukHW3mYHaqQgjgI8jovqYdbKFmrAkxqxypHjwtU5fPd7T+LL576O3/rs7+ArX/sG/uhPv4mP/8Kn8KEPPYR3vetdePe73413/bN3gUaj4ctf/hP4ooX7hebO6UGsN7fOhePFoTslhT4pL94O8RCRVAWxXB1ziyxcn1zC5MwKJmfpWFrlgcWTk9N9vRN6exAWTxTOYJocCqdqiOWaxwrMn0xqopkm1T+tnZjDCcRKVLFfhCd8HBPtgeNaUe+KQGULQ2EJQjoCcdSlivQeiAxesGVmzDBEmGVQe4tMCWaZYszQhZhZFZI68S0xkSXQHk++DQaJBSqscGSYW+Fjni7A7Aof47MMPP7UFXzjm9/HF770dTzyq5/Fp/7lZ/BLv/QIfvmXfx2/+shv4bEnLsIXK9wvtE4xJrbbu+eiiVLf7qJiIhUPB9kpSWwOUO3uob55iEiygjgF8drkIiZnVzEzz8LiKg8srgwihQlygws6WwAWb4yCWEA4VTtW4ECFuSZiWQIwmjlOakIUxEDs+LTfGynAEy7AFcrDEcwOY6KZUiJxp8ETShx1qSKDF2KjD2y5mcTEAUSGBLN00TAuDpTIFGjAElClhkANJl99PL4oIBDpPAUWmRIsssRYYIoxs8zD1MIaphc5mJxn4+rUKi6PL+HC1QVcm1zFElMCjkQPTzhzv9Q8xey029sjEN0xcoIxokSLI4xouoZa7wCVzh7qGwRiLFfH/DIHE9MrmJqlY3aRTSDy5RApzFAYXcPjqMGgVChZQSzbRDzXHMIjx1EUwPTg8qFBjVgeNsD9seLQnbqCWThGlGj2xmFwRaG2h6Gw/j9A1HsgNvqwJjdjhi48noQbdad0EZZHIDIFg4k3yqXyBzOoBCKTp8QqR47VNRlW1mRYYq1jgS7CAl2E+VWizpllLqYXOVhkislUnEQHXzR/v9LdPT2IG5uH52LJct82aHxTSY2VKjGiqRpq3f0hxGiKKHFhmTPMTmcX2Vim87HGV0KsNEOqc0Bj8cPkisARSMEXKSCUqiKWbVLWQDTTID9TJxgRat5mWOSPzKf6oiV4R1ypgxrbGEDUuSJQ2SNQWEP/rxDZMjO5XWoAj0psZgZK5L4F4ohrHR0kJnFSBSafTIgz+SoweErQuQqscmRYWZNimb0+NJZABZ7UAO66Hv5Y4X6tu3d6EDe3js7FkpUhxJMxMYRIqoZqZw+Vdp+CSBKbxVUepuaYmJ5nYmaBiWU6H2y+EkKFCTK9gzTBXRHiTiMFhJJVRDPH8KLUSvcQYKr69lgYLQ7joTdMLkF3BbNwBDLDYv/YnQ5ioh/rRgqifhATKYhUTJxaEWCGLqJAUgDpQkzThWTGhq9+C0Q1WALNiKmHbpYlUFM7/ZrhJByBSu1x8FVgC9TgreshkJvAkxoQiBfu1zf3Tw/i9s7RuViq0re5YrC7YrBTLTerg0CMpmrkJot2H7XeAcLxEhL5BpZW+VSxz8TMAomJbL4CArkRUr0DGpsfJncEdn8SnnAewQQ5jhqAjGYJvGimjki6NlLcn4Toiw4Gi6nyIkiNaowmNs4oVLYIKfbfUmIMSguRjspOZSbMrAqHChyFODOAKNCcGAJm8tVg8lRg8dUjyQ4F8K3bUWJiw4UbEbl2mtxAZQJfZkQwXrzf3Do8PYgHh3fOJTNVApFqub1ViYPrSKrdA4QTBOIynY+pOQZm5hkURC7JThUm4k6tflg8UdioOZtgooxIukaBIwAHJcXg1GLoSik3SiAOkppjiPZAGjb/yexUbQ9Dbg1BOlpe6EiNKKJAEiWaML0qOOlGqcx0ekWI5TXZP7KLcZzcsAQaMhxMQRy9wO94xU0PrsTwlmvEzBApzRDITAglSvc7uzdOsQGeqvwrbzBTGSY1zhgsjigsjgHEKirtPZRau6j19hFOlBDPURBn6ZiZZ2B2gYWFFS5YfAJRpndAax1VYo5cQJuoEGhUEjNQ4Im6kEpoCMQC5UoLQ1d6PP1GQXRTdaItDLmFgmjwDl0pUeIxRJbUhKkV/oj6BMSVrpDzxGWO/ATEASzmIEPlKanf04At0IAt1IIj1lP7GLoTl/jxpEZyRcrgDjilBUK5CeFk6X6vf/P0IGpN/keszmjG5U2ONL8jsDgiMNnCxxDbu6h29xGMFRHL1LCwRDo2M/NMzC6wsLjCA5MnA19ugEzvgNrig8l1DNEbLSAQLyOUrJL4lyLDxOGBCqk+KXGlxaEKB67UTSlxkJla/cmRM8UwVLYQ5JYgpCb/sAE+OJIS6UjHZhATJ4cQB1tUfExT63FDJfLVb3epfNVQlWyBBmtCLdYG10tTF/nx1o/XwAcudHjPjdICocKMSLJ8f3Pv1ulBNNhCj9hcsYzTmxhJaqIUxBDCySqq1Ctm1e4+QvESIqkyZubouDa5hMlZOqapc0UmVwaB3ACp1gG12Uf2MXwJuENZ+KIFBGJFhJKVYfwLp6ojHZrBKf4AYIG6AoWYO5SHM5gjSY0vCasvQQamqFkblS0EhZmCSLlSkZZAFOrcEGrdkBh8WJOZKSWSGDi9OoDIx9QKD0trUnJpLV9FJTiq427NSJ3IFmoJRAogR6wjN05JB5vCRupOVPOJy4qECjMi6cqPt2/cfeLUIBptwUds7rdDHJQY4WQVlXYfxcYOqp09CmIF03MMXBlfIC6VcqdMzjoEMgOkOgdUJi/0tiAZXQyk4R5xqYORi1CiQqmwihDlSv3UhpQ3nCejitRB8DAe+lNkvN9LygvT4DzRFoLcHIR0kNRQKhRqCESR1g2x3otVoRaTy1yy9rZKdhmnVvjU6huBSOeTkX8GX3W84kZBHc1M2YLB6rcOHLGeUiK5aerkdZpmiJUWiJVWCOVmRNOV1/s37v7w1CCabMFHbK5oxjnchIqeiInhZHV4t1qts4dAOIdouorZBRauTS5havY4JjK4UghkRki19uFJhtkTgz2QhDuco+70Lg0HoIKJ8nFJQf1vPmoXwx3MwhU8hucIZmD3k+ujrd5jFRrdUeidEahtYcjMAQJRP6JCDTnBEGrdEOm9YK4bMLHMwdQKD1MrfEwu8zC5zKWMh0W2hIKoPAlxuKtI7kEl8VBDudMBRAN4EgNR4eDWqcE10yoCUay0wB8r7Bcam189zXXvR+yuWGawHXzccovAZA0hlKig1NhFsb6DSmsPoWgBkVQFcwsnY+LCChcsrgw8qR7rGjJnY7CHYPHGh623QKxETa8VR4zKRGPFoQJdwcywqB88pDVQIAFIzOSJwUjFRLUtRI6iKIiDU32BmhwGC6nzROa6ERNLHEwuczGxxMXEEgcTi2yML65hYomDBZYEdN4oxJPNbyZ1wfsgLrKFWnBEOnBEFMT1AUTTiaRm4E5FCgt80Xw/XemcOz0lOiKP2NyxzOipvsURGUIMJ6ooNXdRqG+j0uojHC8hmq5iboGN8alVTFNlxvzSGhhr6+CvE4jDpRpvYljwB4cu8zjm+SL54TQbKSXI9V8kC03BHiDwBmb1JmDxxGH2xGFyEyUaXGFoKHe6bvRBrPMQBVIm1LioBMcDpkQ/BDaxuIbxxTWML7AxvrCG8YU1LDAHSqQy1MFqm2B04ZS6mVh4nOBwxDpwxcSdHt+eYYKQepJooESRwgJ/NN/PVLunB9HsjD5i98QzjlF3aifNb6LEY4jlVh+h2DHE6yNHUaNKlGpsUJu8MDojwzmbQKw0vGwvMMhAKZi+aIFkoVQcdIWylBrTcARSsHoTsPoS5HMA0R2jHtOKQu8KQ2MPQmEm4xnCExCPlSjSesAUj0Jk4/o8G9cX2BifJz8vsCTHMXHgRodLNYN9RS3YAjWBOMxO9QSixACehIIoM0MgG0lslFaIFGb4o/l+tto7d5r7iY84PImMc7hEQynRHoHRcuxO87UtAjFeQiRdxfwiBxPTq5iYIU3wZboAbJ4CfKkBUp0darOXlBi+JLwRMvE2KC2Cg0yUcq3eCFHl4J1Bcm44UhP6RiHGRyDGYHRFySKqPQSlKQCpwQu+0g6+ykFma9THijyGyMbEIococJ6Na7NMXJ1l4tock0AUqEDnqY7d6cgO//FRFBUTRSQuckREicSlGsFfN0EgNUMoM0Mop+6yUdqIEmOFfrZ2ihCdnsQjLm8yQ6bcRupEZwRGawiheAXFxi7y1S2UGrsIRIuIpCqYX2RjYnoV07N0TM8zsUQXgMWTkcRGR4p9iycGRyA1bLuFUzWE09RJRbI6HIIaTHkPeqSkT5qFM5CG3Z8cKtDme4sSXVEYnZHhco3c5IPKEsSLL78GgysGrsJOgSSDUiKtGwyxnsCj3Oj1BTauzjKpS40YWGCKyFIqX0VdRPSWle/R61AoFQ7rRLGBcqlEiXypmQI5AlFuhj+W72frpwjR7Us+4vJREJ0xWJ0xWJwRWOwDd1pGsbGDfG0AkSQ28wsE4swcA7OLVO9UQE4x5HongeiOwhlIwRvJI5iokD5pZtB2oya9U4Mh4Qo5saBU6aF2E+1+UhPa/EnYRoCa3TGS2Lii0DsIRIXZD4XJj3JrC0pLEFylgxpVpBKcAcTFNaLExTVcX2Dj+hwL1wZKZIpPZqZC0h893lVUn7weTDSIidrhg2BDdzoKUW6BWEFKDH+00M/VNk8PoieQfsTtSw2VOIiJZvtxdlqsDyDuwB/OIZQsY35xDZMzq5hbYGF+cQ3LdAHWBEqIVdSglI0MSrmCx+veg6OoQRM8QkF962QbyVJzw5g4SHAGr4HafKPJTZTctGEPQmUOQKr3gqOwgq90kIFh1TFIodYNhkh/IpG5Ps8iNscaulOGQDlU4eB9DHIL8ShILdgjV4SRZ4j04IopiOumIUihzEKp0QqhzIxgrNgvNLbOneZW1CNufzozvEXK8XaIhfoOctVNFOs7CITzCMYKWFhcw+T0KmYX2Jgfzp2qIFFZoDINhofJtNtgZDGeo8Yyck3EKBscSUXSdfKISaKCQIyssw0TnECaPME3sjU82IwyOiNEibYgVBY/pHovRBo3+EoXAagi4/t8tRNCjRt0kY5S4hrG59lUXGSRBGeY2FBKpGCxqDvB2RTMwZwNuddGe/yWlGRQK1IdG8qlEiVaIZJbIJSaEYyX+sXWzulB9Idzj3gC6YydmvweJDZme3iY2BTrO8hVNlGo78AbyiIQzWN+gYXJ6VXML7CwuMzFKlMIrlAFqcYGDbUVZfeThZpgooxYtoFkoY1EkRpbLBCL5ZqI5anXaKgro4OJ8rBmHCQ8nnBuZP2b6tp44jC5KCXaglCY/JAaPBBpXGT3YmAqF/gqJwQa1whEKrFZIPAI0DUsMEXU24kqanf/eO2bPeJSTxT+b7lCc5jcSE0jCQ4BOYBYau+eO82Fmkd8wWxmuFjqjMJij8Bso7LTOKXEClGiN5RBKF7EwiIbM3N0LCyxsbzKB4MlBl+kJkumVqr5HSA7+6FkBbFcE8liG6lih8AcDEvlW4jnKWUOQKap/cTE8XiGf3AwHDxe/SYQYzA4yLMKSrMPMoMHYg25kZ+vcFDLNORTpCPTbuOLHEwscUlpMVIrTiyuYZ4hwsoaeT9xcMPisWmoskM53OF/67WZw87NumHEpZqGcVEgNSOUKPUrnf7pQUykao8EwvnM6FmieQgxSGWnxJ0WatvwBjMIJ0pYWuZgYYGN1RUOVla5YHMkEEp0kGuPzxIdgRR80RzC6QriuSaSxQ5lbfJZaCNBvQuVoFQZzdQRydYRoZ4WOm7JlanslRxJ2f2pYZZKSowggaj3QKx2QaCwk7U2akeRp3RAovOCKdbj+iJ7mKFOLHFIfKRc68wKHwtM8fDCWjpPCQblXompqZF+1fFLNm9TIvXi6aD9NujcyMlL56cOMZlpPBKMUBCdJCaa7cSdmixBhBJVFOrbJCY2dslbUNEC6Aw+Vuk80Bl8sFhC8IUKrCtMUBvclCtNwBPJDV1pqtRFrraJXG0T2doGcrUN6iWaHtKVHtLlLtLlLpLUO1HxfBPxfItMAFClSShVJXVlmKy42QIpWLxxGF0URIsfUr0HIpUTPLmN7O3LyEUMa3ILOHIrFtbkuDrLxOVpOrkzdZ6Fq7OM4RWbEwtrmKMLsciSYGVNilWu/Pju05GmOAE4uK1fe/JG4pGXbAQyI6kVZWaiRJkJ4WSpX+ueIsR0rvlIMFLIDCe/HZQ7pSBGElUUqOy02NyFJ0ggrnEkYLFFYK+JweGtgy9SQaayQm/xweKKwulPwRvNI5isIJKpI15sI1XuIlnuIF5sI1ZoIZZvIpytIZiqwJcowRsvwhPLU7v5qWFrzeAMQ+8IkbveTF7I9E7q5kUTeXZPpMEKV0ZeNKWLMLXMxfjCGq7NkRrw2iyT+jULFyaX8dz4Ip67voDz1xfx3LUFPHttHs9eW8Bz1+ZxeXIFEwtrWGJLscod3DxMqZG6tX/YEBeqho+gDF86HXkzY9g/VZDMdJCdRpLlfr13ihBzxdavBKNEicfZaQQmWwQmSwCRZBXldh+FxjaKjV14Q1n4I3lMzSzj0tVpXBufx7WJeYxPLmJ+mQMmVwqeWAOh3ASpzg6V0QOd1Q+TOwqLN046LtQRkskVGZrBEaLejfBDbSZPE5BnC5yQ6sj7S2KVFQK5Edx13XB4d2lwie0KH1NLXEzMs0/cSHxlio7LU6u4Mk0nyzDjSxi7OI2nLs/gmatzOH99Ec9cncfFiWVYnVFEUlXoLH4IqWeDWCLN8I0MpuCtpxqqE28snnj9W37capOobFinXq6RqGyIpir9xsYpQizXNt6byNTGbe7YiQa42RaG0RpEOFFFudNHsbWDcqsPXzgHbyiLqekVXJ9YwPTMKhYW2Vih88HiSsETaSCWmSDTkOMondUPkyMMszsGKwXR6iX3f1vcUZhdERidYRgdYeitQeioe9zUZh+URg/kehekWucxRJkJnHUdmAIVVtZk5PJauhAzyzxMLnJOQLwytYorU6sjEFm4ML6MsYtTxC5N4fIMHc9dX8CF8UX4YgVUu/uo9Q6gsQUgVtvBFmlPxETm8BIG4kK51PO0g7eipDrH8P1EpdFNvZ3ohcrohdrkhdLgRixT6zc29k4PYq+3T+t0994ViOTqVmfkODu1UxCTVZQ7ZDyj0t0jcy+RHOYXWJiaoWN2nomFpTWsMkVgc+VDiFKNHQq9CxqzHwZ7EEZnBGYKmslB/eyOwuQMw2ALwmAnKhw8T6c0eaAwuIfPJEg0NoiUFvDW9WCLNNR10kSFMyt8TC1ycX2WhavTDFyeXMXF60u4OL6EC5Sdv76IC+NLeOryLH7w9FX84Olr+P7TV/H9p67ih89cw9OXZ+EKZVFu7yJT7UFl8UOstlFlhRY8qRFCpQXrGgf1ZjB5F1FtCUBjJS/PaG1BaG1B6OxB6Owh6O3BESO/1lr8SOYa/dbWwelBbPf2aJ2NfVq1sflZuzv27wfzNaRODJK5040DVDp9VHsHCMSL8EfzVInBwOIiG0vLXDDXJOCLNBBK9FhXWqDQO6E0eaAx+6CzBGCwh2ByRmByRmB0hCkXGobeHoTO4ofG7IPa7IPK5IVC74JM68S6xjYcaRAqTOBLjeCK9WAL1aBz5VhirWORKcYiXYhFugiLdBGWBsYQYYUpAZ0tBZMrB5uvAkeoAVeowZpACZ5IC5HcCKnKCpXehXmGEFZvAoXWLuZYpPUmVtvAFmshUlqhd4Shd0Shd8Sgd0agtY0+dBKAxhqAxhYYvkRDQB4DNDhCMDhD0NkCSBYa/dbOKULs9PZpnd4+bWPzkJbO1ufN9tCxO7UEEUlVyWpbbx/1zUMEE0X4IllMTi9jYnIJc/MsrKzysMaVQyjWgS/SQq62QWNwQ2/1w2QPweKKwuFNwulPwx1Mwx3MwBvOwhfJITCYvYmXEEqUEEqUEU1VyOW4xQ4K5R5K1Q2Ua5uo1LdRaWyj2txBtbmDYm0T9c4eups30Nm8gc7mEdqUtQbvM3b3Ue3sodohE3vldh+l9i4KzW0UmzsotHZQ6e5DoDBhgSmBSGPHM5dmcf7aPFa5cnAkOggVFigMXihM5HES8iKNH+qRF2o01sBQjQQkpT5HEHoHBdExgNjst3cPT1GJ3T6t3e3TOt0+rdPbe7cvmGmZ7SGY7WEYzESJja0j1LoUxHgR/lgBTm8cHn8KAeqBr3S+iUyhjUyRvCVcqG2i1NxBtdNHvXeA5uYhWltHaO/cRHvnJlo7N8jtjVtHqG8eorZxgHpvH/XePpobh2hv3yA3WfX2Ue30UWrtoNjYRqG+iVxtA5lyF8kSqTMTuSZi2Tpi2Tqi6RoiqSrCyQrCycEpSZHccEz9RQkmSggnK4ikqoikq4hlaoikKwjECgjEiwinKvBH83D603AG0tDZgsO3n1Tm42eE1FY/9XskhqvNPmit1PtQtgBR4wCogwDV2QJIFZv97u7R6brTgXU3D2jl2sbnzfbwfzHbQzBYAoikqmhsHlFKPII7QEqHcncP+cY2srVNZKh6L1XqIF3qUA87N5DINZEqtJAptZEudZAqtpDINxHN1hDJkC8wkq4gkiIWTVcRz9QQz9aRyNYRpyyRaxBlljrIV3oo1jZRqm+hVN9CubGNcnMH1fYu6t09NDr7aPT2UevsodohnwOrt/dQ6xBlVrpvt3J3D8X2DgqNLWQqPWrloAFfLA+TIwyl0fNTpcn3psLkg9Lsg4pSpMocIJ/UU0IaC4nt2oE6rQFobcQ0Fj+SxWa/279x7jS3ok7YxtYBLZYoSw2WAIyWAFHiBnGn1d4+0qUOIqkKwukqomnyhSdzDaQoYNnBF13dRKlGvugS9UVXqAfB6tSDYI2NAzQ2D9HcPERz6wit7RvEtogKm5tHaGwN7HCo2NrGAWq9g+F/U6W7P4RQbe+h3Omj0u6j3O6j2uqjSn1WWruotHZRblPW2kWptYtSexfF1g4KzW3k6pvIVMnj1JF0jeyLZOoIJcswWH0cfyT3KyZnxKw2+/+9TO+GwuSFwuSF3OB9+4veZu9xdkqZ0uBBstDod/eO/utB7G3s0zrd/s85PckbepMf0XSNKJH6omrUF1/tkVS83jtAvbuPWpf6W9/eI18aZZURK3fIF1vu/N9bpbNHrLuHKmXDnwe/Tymt3t0f/ndVe5SiOtSfoUBW232UmjtUiXT81G2xuYNCYxuFxjbyjS3k61vIVTf+S6rc/S/JQvu/RDL1/8MfL/5DKFX53/yJ8qvuSPa+y5+YSiRLtEA4RwtE8p80OsJ8uc79NxKNExKNE+s6F6Qjr5f+YybTOZEsNPob+zdO053uv826m4e0amPrd4zW4P8eptzpwOUc/+0//tIGkKotYrXWLqrNXVSau9SviQpq1Jda7vSpL/r430kA9gmUAUiqtCm1BwlJH6X27n8utnb/c7G1+58Kje1/KLR2/qHc7v+7XH3zbqG5fbfY3NlPV3r1YnOnVWzuZOKFlqPQ2PIUm9uaWKHFLrV2eOlyZzKaazxT7e6dj+dbfxbO1L5a6/X/KJ5v/s/BVOU3G5sHnw1nqh+zBlMPljvbZ/zJ0s9qnaH3dzf333Pj5vM0XyhLC0eLtEA4RwuGcw/YPYkptdFzV6y2Q6Ihb0INHoRWUG8syqn3FqVaJ1KFZn9r/9YpKnFj/x+1ze0jWiJVnQklKuRasN4ByiNf+uDLLbV3STenvkUlHlvIVTf/c6668X/mqhv/KV3u/kOm2vv7XH3z75Klzu1sdeNWrrF1ECk2q5n6RiNb66XC+YY139p2pqpdeTBXZxbbO5xUtTsezNWfqmzsPRsttv80mKv/YW3z8Fy40PzX0ULzN6q9vUf8yfKD0VL7web20QOBdOX9mcbm+6q9vfd440Vasb1Dq3b7NH+yQqtvHNDqG3u0QLJCq2/s07K1Hi2UrtLaW0e0eK5FC6YqtNb2AS1RbNECyTKttXNEi2RrNGswRat2d2iBdJmmc4VpnY092tGNezRfKEsLRQs0XzBDC0fztFiyTAuGUu91ehN/rrME6gqDl7hVkw8Kg3v4WKZM58S62o50sdXfPbx9msX+wT9uGwe0bnfvfeli25yqdHKeRNGUq/dsgVRZ6IrlVgvNTVak0LjmiuWfKLW2n06Umt+yhjJfLLa3/9ARzX7WHsn+aqm986vmUOZBb6r84erG3s+bw9n3RUvt91a39t9jCGVoqXqPVmhu0myRLK280aelal2aPZqjVTb2aOlal+ZOlWiN3SNapNim+TM1Wqt/kxYpNmmRQpPW2Dyg+ZNlWrTcobV3b9KCmSot29iiVXt7NF+iNIQYSFVptY19Wm1jjxZMVWn13h6BmKnRWluHtESeQGxujUI8/P8MMRTJ0yLxIi0QTNFC0TwtGiv+s3is+G8sjrBfY/b9h4EbHSpR40Cm1OrvHd35bwCxd0DrdvZp9e4uLVtr05T2IK3a2aG5Y1ma1hWm1Xt9WqTYoFkCKVpzc5+WqbZppkCSVt/cpzliOZotkqHVen2aJZyhedMVWn1rn2aN5GixcptW29qnmSJZWqq+QSu2tmj2aJ5W6vVpqVqP5ojlKYg9midVpjV2DmnRAcTdm7RwoUmLFJu0+j9BiMFwjhaJFmi5TI0WDKVp4UjuV53uuERn8f9ErnUN3Wm23O7v3fhvBLHT2aPVOju0XK1DUzvDtEpnh+aJ52h6T5RWoyBagylaY4NANAdStNrGHs0Ry9LskSyt2v3/J8RMukrzB1O0WLxAS8ZLtEAo8/N2b3zOYA2+pDJ6Uah2d27cuveldyD+jwAxVqDFY0VaIJShhWJ5mj+U+WAgnB3PVzriw5t3f+PUIL5j/7TtnS/hHYjv2DsQ37F3IL5j70B8B+I79k/H/q8BACpkvUpF/c8hAAAAAElFTkSuQmCC" vertex="1" parent="1">
          <mxGeometry x="660" y="360" width="113" height="112" as="geometry" />
        </mxCell>
        <mxCell id="rkvHEvfjf1KEYPUZyGFZ-3" value="&lt;font style=&quot;font-size: 18px;&quot;&gt;使用者&lt;/font&gt;" style="text;strokeColor=none;align=center;fillColor=none;html=1;verticalAlign=middle;whiteSpace=wrap;rounded=0;" vertex="1" parent="1">
          <mxGeometry x="37.25" y="465.5" width="110" height="40" as="geometry" />
        </mxCell>
        <mxCell id="rkvHEvfjf1KEYPUZyGFZ-4" value="&lt;font style=&quot;font-size: 18px;&quot;&gt;管理员&lt;/font&gt;" style="text;strokeColor=none;align=center;fillColor=none;html=1;verticalAlign=middle;whiteSpace=wrap;rounded=0;" vertex="1" parent="1">
          <mxGeometry x="457.25" y="465.5" width="110" height="40" as="geometry" />
        </mxCell>
        <mxCell id="rkvHEvfjf1KEYPUZyGFZ-9" value="&lt;font style=&quot;font-size: 18px;&quot;&gt;提交申请并通过审批&lt;/font&gt;" style="text;strokeColor=none;align=center;fillColor=none;html=1;verticalAlign=middle;whiteSpace=wrap;rounded=0;" vertex="1" parent="1">
          <mxGeometry x="140" y="370" width="110" height="40" as="geometry" />
        </mxCell>
        <mxCell id="rkvHEvfjf1KEYPUZyGFZ-10" value="&lt;font style=&quot;font-size: 18px;&quot;&gt;领用/借用申请&lt;/font&gt;" style="text;strokeColor=none;align=center;fillColor=none;html=1;verticalAlign=middle;whiteSpace=wrap;rounded=0;" vertex="1" parent="1">
          <mxGeometry x="262.5" y="465.5" width="117.5" height="44.5" as="geometry" />
        </mxCell>
        <mxCell id="rkvHEvfjf1KEYPUZyGFZ-11" value="&lt;span style=&quot;font-size: 18px;&quot;&gt;操作出库&lt;/span&gt;" style="text;strokeColor=none;align=center;fillColor=none;html=1;verticalAlign=middle;whiteSpace=wrap;rounded=0;" vertex="1" parent="1">
          <mxGeometry x="544.5" y="365.5" width="110" height="40" as="geometry" />
        </mxCell>
      </root>
    </mxGraphModel>
  </diagram>
</mxfile>
